<svg fill="currentColor" width="800px" height="800px" viewBox="0 0 24 24" xmlns="http://www.w3.org/2000/svg">
  <path fill-rule="evenodd" clip-rule="evenodd" d="M21.593 7.203a2.506 2.506 0 0 0-1.762-1.766C18.265 5.007 12 5 12 5s-6.264-.007-7.831.404a2.56 2.56 0 0 0-1.766 1.778C2 8.775 2 12.001 2 12.001s0 3.226.403 4.795a2.506 2.506 0 0 0 1.762 1.766C5.735 19 12 19 12 19s6.265 0 7.831-.439a2.504 2.504 0 0 0 1.762-1.766C22 15.226 22 12 22 12s0-3.226-.407-4.797zM9.999 15.005l.005-6 5.207 3.005-5.212 2.995z"/>
</svg>
